<?xml version="1.0" encoding="utf-8"?>
<!-- Generator: Adobe Illustrator 24.1.3, SVG Export Plug-In . SVG Version: 6.00 Build 0)  -->
<svg version="1.1" id="Layer_1" xmlns="http://www.w3.org/2000/svg" xmlns:xlink="http://www.w3.org/1999/xlink" x="0px" y="0px"
	 viewBox="0 0 268.7 59.7" style="enable-background:new 0 0 268.7 59.7;" xml:space="preserve">
<g>
	<path d="M3.9,6h7.4v32.1h16.5v7H3.9V6z"/>
	<path d="M48.7,42.2h-0.4c-0.8,1-1.8,1.9-3,2.6c-1.2,0.7-2.7,1.1-4.6,1.1c-1.4,0-2.7-0.2-3.9-0.7c-1.2-0.5-2.3-1.1-3.2-1.9
		c-0.9-0.8-1.6-1.8-2.1-2.9c-0.5-1.1-0.8-2.4-0.8-3.7c0-1.4,0.3-2.6,0.8-3.7c0.5-1.1,1.3-2.1,2.3-2.9c1-0.8,2.1-1.4,3.5-1.8
		c1.3-0.4,2.8-0.6,4.3-0.6c1.7,0,3.2,0.1,4.3,0.4c1.1,0.3,2.1,0.6,2.8,0.8v-0.8c0-1.4-0.6-2.6-1.7-3.5c-1.1-0.9-2.5-1.4-4.2-1.4
		c-2.5,0-4.6,1-6.3,3.1l-5.2-3.5c2.8-3.6,6.7-5.4,11.6-5.4c4.1,0,7.3,1,9.5,2.9c2.2,1.9,3.3,4.8,3.3,8.7v16.1h-7V42.2z M48.7,34.2
		c-0.8-0.4-1.7-0.7-2.6-1c-0.9-0.2-1.9-0.4-2.9-0.4c-1.7,0-3,0.4-4,1.1c-0.9,0.7-1.4,1.7-1.4,2.8c0,1.1,0.4,2,1.3,2.6
		c0.9,0.7,1.9,1,3.1,1c0.9,0,1.8-0.2,2.6-0.5c0.8-0.3,1.5-0.8,2-1.4c0.6-0.6,1-1.2,1.3-2C48.6,35.8,48.7,35,48.7,34.2z"/>
	<path d="M61.2,18.3h6.7v3.2h0.4c0.7-1.1,1.7-2.1,3.1-2.9c1.4-0.8,3.1-1.2,5.1-1.2c1.7,0,3.3,0.4,4.9,1.1c1.5,0.7,2.9,1.7,4.1,2.9
		c1.2,1.3,2.1,2.8,2.8,4.5c0.7,1.7,1,3.7,1,5.7s-0.3,4-1,5.7c-0.7,1.7-1.6,3.2-2.8,4.5c-1.2,1.3-2.5,2.2-4.1,2.9
		c-1.5,0.7-3.2,1.1-4.9,1.1c-2,0-3.7-0.4-5.1-1.2C70,43.9,69,43,68.4,41.8h-0.4l0.4,3.8v11.2h-7.2V18.3z M75.1,39.3
		c0.9,0,1.8-0.2,2.7-0.5c0.9-0.4,1.6-0.9,2.3-1.5s1.2-1.5,1.6-2.4c0.4-0.9,0.6-2,0.6-3.2c0-1.2-0.2-2.2-0.6-3.2
		c-0.4-0.9-0.9-1.7-1.6-2.4s-1.4-1.2-2.3-1.5C76.9,24.2,76,24,75.1,24c-0.9,0-1.8,0.2-2.7,0.5c-0.9,0.3-1.6,0.8-2.3,1.5
		s-1.2,1.5-1.6,2.4c-0.4,0.9-0.6,2-0.6,3.2s0.2,2.3,0.6,3.2c0.4,0.9,0.9,1.7,1.6,2.4s1.4,1.2,2.3,1.5C73.2,39.2,74.1,39.3,75.1,39.3
		z"/>
	<path d="M129,38.8c-1.9,2.3-4.2,4.1-6.8,5.3s-5.6,1.8-8.8,1.8c-2.9,0-5.6-0.5-8.1-1.6c-2.5-1.1-4.7-2.5-6.5-4.3
		c-1.8-1.8-3.3-4-4.3-6.5c-1.1-2.5-1.6-5.2-1.6-8.1c0-2.9,0.5-5.6,1.6-8.1c1.1-2.5,2.5-4.7,4.3-6.5c1.8-1.8,4-3.3,6.5-4.3
		c2.5-1.1,5.2-1.6,8.1-1.6c3.1,0,5.9,0.5,8.3,1.6c2.4,1.1,4.5,2.7,6.4,4.8l-5.2,5c-1.2-1.3-2.5-2.4-4-3.2c-1.5-0.8-3.3-1.2-5.4-1.2
		c-1.8,0-3.5,0.3-5.1,1c-1.6,0.6-3,1.5-4.2,2.7c-1.2,1.2-2.1,2.6-2.8,4.2c-0.7,1.7-1,3.5-1,5.5c0,2,0.3,3.9,1,5.5
		c0.7,1.7,1.6,3.1,2.8,4.2c1.2,1.2,2.6,2.1,4.2,2.7c1.6,0.6,3.3,1,5.1,1c2.2,0,4.1-0.4,5.8-1.3c1.7-0.9,3.2-2.2,4.5-3.8L129,38.8z"
		/>
	<path d="M149.5,42.2H149c-0.8,1-1.8,1.9-3,2.6c-1.2,0.7-2.7,1.1-4.6,1.1c-1.4,0-2.7-0.2-3.9-0.7c-1.2-0.5-2.3-1.1-3.2-1.9
		c-0.9-0.8-1.6-1.8-2.1-2.9c-0.5-1.1-0.8-2.4-0.8-3.7c0-1.4,0.3-2.6,0.8-3.7c0.5-1.1,1.3-2.1,2.3-2.9c1-0.8,2.1-1.4,3.5-1.8
		c1.3-0.4,2.8-0.6,4.3-0.6c1.7,0,3.2,0.1,4.3,0.4c1.1,0.3,2.1,0.6,2.8,0.8v-0.8c0-1.4-0.6-2.6-1.7-3.5c-1.1-0.9-2.5-1.4-4.2-1.4
		c-2.5,0-4.6,1-6.3,3.1l-5.2-3.5c2.8-3.6,6.7-5.4,11.6-5.4c4.1,0,7.3,1,9.5,2.9c2.2,1.9,3.3,4.8,3.3,8.7v16.1h-7V42.2z M149.5,34.2
		c-0.8-0.4-1.7-0.7-2.6-1c-0.9-0.2-1.9-0.4-2.9-0.4c-1.7,0-3,0.4-4,1.1c-0.9,0.7-1.4,1.7-1.4,2.8c0,1.1,0.4,2,1.3,2.6
		c0.9,0.7,1.9,1,3.1,1c0.9,0,1.8-0.2,2.6-0.5c0.8-0.3,1.5-0.8,2-1.4c0.6-0.6,1-1.2,1.3-2C149.3,35.8,149.5,35,149.5,34.2z"/>
	<path d="M162.2,18.3h6.7V22h0.4c0.3-0.7,0.8-1.3,1.3-1.8c0.5-0.5,1.2-1,1.8-1.4c0.7-0.4,1.4-0.7,2.2-1c0.8-0.2,1.6-0.4,2.3-0.4
		c0.9,0,1.8,0.1,2.4,0.3c0.7,0.2,1.2,0.5,1.7,0.8l-1.9,6.4c-0.4-0.2-0.9-0.4-1.4-0.5c-0.5-0.1-1.2-0.2-1.9-0.2c-1,0-1.9,0.2-2.7,0.6
		c-0.8,0.4-1.5,0.9-2,1.6c-0.6,0.7-1,1.5-1.3,2.4c-0.3,0.9-0.5,1.9-0.5,3v13.2h-7.2V18.3z"/>
	<path d="M208.1,38.6c-1.2,2.2-2.9,4-5,5.3c-2.1,1.3-4.7,2-7.7,2c-2,0-3.9-0.4-5.7-1.1c-1.7-0.7-3.2-1.7-4.5-3
		c-1.3-1.3-2.3-2.8-3-4.5s-1.1-3.6-1.1-5.7c0-1.9,0.3-3.8,1-5.5c0.7-1.7,1.7-3.2,2.9-4.5c1.2-1.3,2.7-2.3,4.4-3.1s3.6-1.1,5.6-1.1
		c2.1,0,4.1,0.4,5.7,1.1c1.7,0.7,3.1,1.7,4.2,2.9c1.1,1.3,2,2.7,2.6,4.5c0.6,1.7,0.9,3.6,0.9,5.6c0,0.3,0,0.5,0,0.7
		c0,0.2-0.1,0.4-0.1,0.6c0,0.2-0.1,0.4-0.1,0.6h-20.1c0.1,1.1,0.4,2,0.9,2.8c0.5,0.8,1,1.4,1.7,2c0.7,0.5,1.4,0.9,2.2,1.1
		c0.8,0.2,1.6,0.4,2.5,0.4c1.6,0,3-0.4,4.1-1.1c1.1-0.7,1.9-1.7,2.5-2.8L208.1,38.6z M201.6,28.2c0-0.5-0.2-1-0.5-1.6
		c-0.3-0.6-0.7-1.1-1.2-1.6c-0.5-0.5-1.2-0.9-2-1.3c-0.8-0.3-1.7-0.5-2.8-0.5c-1.5,0-2.9,0.4-4,1.3c-1.2,0.9-2,2.1-2.5,3.7H201.6z"
		/>
	<path style="fill:#F58320;" d="M213.6,45.1c-0.6,0-1.2-0.2-1.6-0.6c-0.4-0.4-0.7-0.9-0.7-1.5c0-0.6,0.2-1.1,0.7-1.5s1-0.6,1.6-0.6
		c0.6,0,1.2,0.2,1.6,0.6c0.4,0.4,0.6,0.9,0.6,1.5c0,0.6-0.2,1.1-0.6,1.5C214.7,44.8,214.2,45.1,213.6,45.1z"/>
	<path style="fill:#F58320;" d="M230.6,41.8c-0.6,1.1-1.3,2-2.3,2.6c-1,0.7-2.2,1-3.7,1c-1,0-1.9-0.2-2.7-0.5
		c-0.8-0.3-1.5-0.8-2.1-1.4c-0.6-0.6-1.1-1.3-1.4-2.1c-0.3-0.8-0.5-1.7-0.5-2.7c0-1,0.2-1.9,0.5-2.7c0.3-0.8,0.8-1.5,1.4-2.1
		c0.6-0.6,1.3-1.1,2.1-1.4s1.7-0.5,2.7-0.5c1.5,0,2.7,0.3,3.7,1c1,0.7,1.7,1.6,2.2,2.6l-3.1,1.3c-0.3-0.6-0.7-1-1.1-1.3
		c-0.5-0.3-1-0.5-1.7-0.5c-0.5,0-0.9,0.1-1.3,0.3c-0.4,0.2-0.8,0.4-1.1,0.7s-0.5,0.7-0.7,1.1c-0.2,0.5-0.3,1-0.3,1.5
		c0,0.6,0.1,1.1,0.3,1.5c0.2,0.5,0.4,0.8,0.7,1.1s0.7,0.6,1.1,0.7c0.4,0.2,0.8,0.3,1.3,0.3c0.7,0,1.3-0.2,1.8-0.5
		c0.5-0.3,0.9-0.8,1.2-1.4L230.6,41.8z"/>
	<path style="fill:#F58320;" d="M238.6,31.9c1,0,1.9,0.2,2.7,0.5c0.8,0.3,1.5,0.8,2.1,1.4c0.6,0.6,1.1,1.3,1.4,2.1
		c0.3,0.8,0.5,1.7,0.5,2.7c0,1-0.2,1.9-0.5,2.7c-0.3,0.8-0.8,1.5-1.4,2.1c-0.6,0.6-1.3,1.1-2.1,1.4c-0.8,0.3-1.7,0.5-2.7,0.5
		c-1,0-1.9-0.2-2.7-0.5c-0.8-0.3-1.5-0.8-2.1-1.4c-0.6-0.6-1.1-1.3-1.4-2.1c-0.3-0.8-0.5-1.7-0.5-2.7c0-1,0.2-1.9,0.5-2.7
		c0.3-0.8,0.8-1.5,1.4-2.1c0.6-0.6,1.3-1.1,2.1-1.4S237.6,31.9,238.6,31.9z M238.6,42.3c0.4,0,0.9-0.1,1.3-0.2
		c0.4-0.2,0.8-0.4,1.1-0.7s0.6-0.7,0.7-1.1c0.2-0.5,0.3-1,0.3-1.5c0-0.6-0.1-1.1-0.3-1.5c-0.2-0.5-0.4-0.8-0.7-1.1s-0.7-0.6-1.1-0.7
		c-0.4-0.2-0.8-0.2-1.3-0.2c-0.5,0-0.9,0.1-1.3,0.2c-0.4,0.2-0.8,0.4-1.1,0.7s-0.6,0.7-0.7,1.1c-0.2,0.5-0.3,1-0.3,1.5
		c0,0.6,0.1,1.1,0.3,1.5c0.2,0.5,0.4,0.8,0.7,1.1s0.7,0.6,1.1,0.7C237.7,42.2,238.1,42.3,238.6,42.3z"/>
	<path style="fill:#F58320;" d="M247.3,32.3h3.2V34h0.2c0.4-0.6,0.9-1.1,1.6-1.5c0.7-0.4,1.4-0.6,2.3-0.6c1,0,1.8,0.2,2.4,0.7
		c0.7,0.5,1.1,1,1.4,1.7c0.4-0.6,1-1.2,1.7-1.7c0.7-0.5,1.6-0.7,2.7-0.7c0.8,0,1.5,0.1,2,0.4c0.6,0.3,1,0.6,1.4,1.1
		c0.4,0.5,0.7,1,0.8,1.6c0.2,0.6,0.3,1.3,0.3,2.1v8h-3.4v-7.4c0-1.7-0.7-2.6-2.1-2.6c-0.5,0-0.8,0.1-1.2,0.3s-0.6,0.5-0.9,0.8
		c-0.2,0.3-0.4,0.7-0.5,1.2c-0.1,0.5-0.2,1-0.2,1.5v6.2h-3.4v-7.4c0-1.7-0.7-2.6-2.2-2.6c-0.4,0-0.8,0.1-1.1,0.3s-0.6,0.5-0.8,0.8
		c-0.2,0.3-0.4,0.7-0.5,1.2c-0.1,0.5-0.2,1-0.2,1.5v6.2h-3.4V32.3z"/>
</g>
<g>
</g>
<g>
</g>
<g>
</g>
<g>
</g>
<g>
</g>
<g>
</g>
</svg>
